<svg width="20" height="20" viewBox="0 0 20 20" fill="none" xmlns="http://www.w3.org/2000/svg">
<path d="M9.99998 18C8.91736 17.0425 7.91387 15.9928 6.99999 14.8619C5.62857 13.1636 4 10.6343 4 8.22413C3.99941 6.99322 4.35101 5.7898 5.01031 4.76616C5.66961 3.74252 6.60697 2.94468 7.70376 2.4736C8.80056 2.00253 10.0075 1.8794 11.1718 2.1198C12.3361 2.3602 13.4055 2.95332 14.2445 3.8241C14.8032 4.40075 15.246 5.08655 15.5473 5.84181C15.8486 6.59708 16.0025 7.4068 16 8.22413C16 10.6343 14.3714 13.1636 13 14.8619C12.0861 15.9928 11.0826 17.0425 9.99998 18ZM9.99998 5.55798C9.318 5.55798 8.66395 5.83888 8.18171 6.33888C7.69948 6.83888 7.42856 7.51702 7.42856 8.22413C7.42856 8.93123 7.69948 9.60938 8.18171 10.1094C8.66395 10.6094 9.318 10.8903 9.99998 10.8903C10.682 10.8903 11.336 10.6094 11.8183 10.1094C12.3005 9.60938 12.5714 8.93123 12.5714 8.22413C12.5714 7.51702 12.3005 6.83888 11.8183 6.33888C11.336 5.83888 10.682 5.55798 9.99998 5.55798Z" fill="#DD052E"/>
</svg>
